<?xml version="1.0" encoding="UTF-8" standalone="no"?>
<!DOCTYPE svg PUBLIC "-//W3C//DTD SVG 1.1//EN"
 "http://www.w3.org/Graphics/SVG/1.1/DTD/svg11.dtd">
<!-- Generated by graphviz version 2.38.0 (20140413.2041)
 -->
<!-- Title: controllers_diagram Pages: 1 -->
<svg width="634pt" height="689pt"
 viewBox="0.00 0.00 633.71 689.00" xmlns="http://www.w3.org/2000/svg" xmlns:xlink="http://www.w3.org/1999/xlink">
<g id="graph0" class="graph" transform="scale(1 1) rotate(0) translate(255.89 451.5)">
<title>controllers_diagram</title>
<polygon fill="white" stroke="none" points="-255.89,237.5 -255.89,-451.5 377.821,-451.5 377.821,237.5 -255.89,237.5"/>
<!-- _diagram_info -->
<g id="node1" class="node"><title>_diagram_info</title>
<text text-anchor="start" x="7.78833" y="156.9" font-family="Times,serif" font-size="13.00">Controllers diagram</text>
<text text-anchor="start" x="7.78833" y="169.9" font-family="Times,serif" font-size="13.00">Date: Nov 19 2014 &#45; 15:04</text>
<text text-anchor="start" x="7.78833" y="182.9" font-family="Times,serif" font-size="13.00">Migration version: 20141119070649</text>
<text text-anchor="start" x="7.78833" y="195.9" font-family="Times,serif" font-size="13.00">Generated by RailRoady 1.2.0</text>
<text text-anchor="start" x="7.78833" y="208.9" font-family="Times,serif" font-size="13.00">http://railroady.prestonlee.com</text>
</g>
<!-- AnswersController -->
<g id="node2" class="node"><title>AnswersController</title>
<path fill="none" stroke="black" d="M-203.811,-217C-203.811,-217 -102.189,-217 -102.189,-217 -96.1895,-217 -90.1895,-223 -90.1895,-229 -90.1895,-229 -90.1895,-435 -90.1895,-435 -90.1895,-441 -96.1895,-447 -102.189,-447 -102.189,-447 -203.811,-447 -203.811,-447 -209.811,-447 -215.811,-441 -215.811,-435 -215.811,-435 -215.811,-229 -215.811,-229 -215.811,-223 -209.811,-217 -203.811,-217"/>
<text text-anchor="middle" x="-153" y="-431.8" font-family="Times,serif" font-size="14.00">AnswersController</text>
<polyline fill="none" stroke="black" points="-215.811,-425 -90.1895,-425 "/>
<text text-anchor="start" x="-207.811" y="-409.8" font-family="Times,serif" font-size="14.00">create</text>
<text text-anchor="start" x="-207.811" y="-395.8" font-family="Times,serif" font-size="14.00">destroy</text>
<text text-anchor="start" x="-207.811" y="-381.8" font-family="Times,serif" font-size="14.00">edit</text>
<text text-anchor="start" x="-207.811" y="-367.8" font-family="Times,serif" font-size="14.00">index</text>
<text text-anchor="start" x="-207.811" y="-353.8" font-family="Times,serif" font-size="14.00">new</text>
<text text-anchor="start" x="-207.811" y="-339.8" font-family="Times,serif" font-size="14.00">show</text>
<text text-anchor="start" x="-207.811" y="-325.8" font-family="Times,serif" font-size="14.00">update</text>
<polyline fill="none" stroke="black" points="-215.811,-319 -90.1895,-319 "/>
<polyline fill="none" stroke="black" points="-215.811,-295 -90.1895,-295 "/>
<text text-anchor="start" x="-207.811" y="-279.8" font-family="Times,serif" font-size="14.00">_layout</text>
<text text-anchor="start" x="-207.811" y="-265.8" font-family="Times,serif" font-size="14.00">answer_params</text>
<text text-anchor="start" x="-207.811" y="-251.8" font-family="Times,serif" font-size="14.00">authenticate_admin</text>
<text text-anchor="start" x="-207.811" y="-237.8" font-family="Times,serif" font-size="14.00">authenticate_user</text>
<text text-anchor="start" x="-207.811" y="-223.8" font-family="Times,serif" font-size="14.00">set_answer</text>
</g>
<!-- ApplicationController -->
<g id="node3" class="node"><title>ApplicationController</title>
<path fill="none" stroke="black" d="M246.179,233C246.179,233 361.821,233 361.821,233 367.821,233 373.821,227 373.821,221 373.821,221 373.821,155 373.821,155 373.821,149 367.821,143 361.821,143 361.821,143 246.179,143 246.179,143 240.179,143 234.179,149 234.179,155 234.179,155 234.179,221 234.179,221 234.179,227 240.179,233 246.179,233"/>
<text text-anchor="middle" x="304" y="158.2" font-family="Times,serif" font-size="14.00">ApplicationController</text>
<polyline fill="none" stroke="black" points="234.179,165 373.821,165 "/>
<text text-anchor="start" x="242.179" y="180.2" font-family="Times,serif" font-size="14.00">current_user</text>
<polyline fill="none" stroke="black" points="234.179,187 373.821,187 "/>
<polyline fill="none" stroke="black" points="234.179,211 373.821,211 "/>
<text text-anchor="start" x="242.179" y="226.2" font-family="Times,serif" font-size="14.00">_layout</text>
</g>
<!-- GamesController -->
<g id="node4" class="node"><title>GamesController</title>
<path fill="none" stroke="black" d="M-222.21,17C-222.21,17 -133.79,17 -133.79,17 -127.79,17 -121.79,11 -121.79,5 -121.79,5 -121.79,-173 -121.79,-173 -121.79,-179 -127.79,-185 -133.79,-185 -133.79,-185 -222.21,-185 -222.21,-185 -228.21,-185 -234.21,-179 -234.21,-173 -234.21,-173 -234.21,5 -234.21,5 -234.21,11 -228.21,17 -222.21,17"/>
<text text-anchor="middle" x="-178" y="-169.8" font-family="Times,serif" font-size="14.00">GamesController</text>
<polyline fill="none" stroke="black" points="-234.21,-163 -121.79,-163 "/>
<text text-anchor="start" x="-226.21" y="-147.8" font-family="Times,serif" font-size="14.00">create</text>
<text text-anchor="start" x="-226.21" y="-133.8" font-family="Times,serif" font-size="14.00">destroy</text>
<text text-anchor="start" x="-226.21" y="-119.8" font-family="Times,serif" font-size="14.00">edit</text>
<text text-anchor="start" x="-226.21" y="-105.8" font-family="Times,serif" font-size="14.00">index</text>
<text text-anchor="start" x="-226.21" y="-91.8" font-family="Times,serif" font-size="14.00">new</text>
<text text-anchor="start" x="-226.21" y="-77.8" font-family="Times,serif" font-size="14.00">show</text>
<text text-anchor="start" x="-226.21" y="-63.8" font-family="Times,serif" font-size="14.00">update</text>
<polyline fill="none" stroke="black" points="-234.21,-57 -121.79,-57 "/>
<polyline fill="none" stroke="black" points="-234.21,-33 -121.79,-33 "/>
<text text-anchor="start" x="-226.21" y="-17.8" font-family="Times,serif" font-size="14.00">_layout</text>
<text text-anchor="start" x="-226.21" y="-3.8" font-family="Times,serif" font-size="14.00">game_params</text>
<text text-anchor="start" x="-226.21" y="10.2" font-family="Times,serif" font-size="14.00">set_game</text>
</g>
<!-- QuantifiersController -->
<g id="node5" class="node"><title>QuantifiersController</title>
<path fill="none" stroke="black" d="M-41.8794,-127C-41.8794,-127 69.8794,-127 69.8794,-127 75.8794,-127 81.8794,-133 81.8794,-139 81.8794,-139 81.8794,-317 81.8794,-317 81.8794,-323 75.8794,-329 69.8794,-329 69.8794,-329 -41.8794,-329 -41.8794,-329 -47.8794,-329 -53.8794,-323 -53.8794,-317 -53.8794,-317 -53.8794,-139 -53.8794,-139 -53.8794,-133 -47.8794,-127 -41.8794,-127"/>
<text text-anchor="middle" x="14" y="-313.8" font-family="Times,serif" font-size="14.00">QuantifiersController</text>
<polyline fill="none" stroke="black" points="-53.8794,-307 81.8794,-307 "/>
<text text-anchor="start" x="-45.8794" y="-291.8" font-family="Times,serif" font-size="14.00">create</text>
<text text-anchor="start" x="-45.8794" y="-277.8" font-family="Times,serif" font-size="14.00">destroy</text>
<text text-anchor="start" x="-45.8794" y="-263.8" font-family="Times,serif" font-size="14.00">edit</text>
<text text-anchor="start" x="-45.8794" y="-249.8" font-family="Times,serif" font-size="14.00">index</text>
<text text-anchor="start" x="-45.8794" y="-235.8" font-family="Times,serif" font-size="14.00">new</text>
<text text-anchor="start" x="-45.8794" y="-221.8" font-family="Times,serif" font-size="14.00">show</text>
<text text-anchor="start" x="-45.8794" y="-207.8" font-family="Times,serif" font-size="14.00">update</text>
<polyline fill="none" stroke="black" points="-53.8794,-201 81.8794,-201 "/>
<polyline fill="none" stroke="black" points="-53.8794,-177 81.8794,-177 "/>
<text text-anchor="start" x="-45.8794" y="-161.8" font-family="Times,serif" font-size="14.00">_layout</text>
<text text-anchor="start" x="-45.8794" y="-147.8" font-family="Times,serif" font-size="14.00">quantifier_params</text>
<text text-anchor="start" x="-45.8794" y="-133.8" font-family="Times,serif" font-size="14.00">set_quantifier</text>
</g>
<!-- QuestionTypesController -->
<g id="node6" class="node"><title>QuestionTypesController</title>
<path fill="none" stroke="black" d="M-77.6665,107C-77.6665,107 55.6665,107 55.6665,107 61.6665,107 67.6665,101 67.6665,95 67.6665,95 67.6665,-83 67.6665,-83 67.6665,-89 61.6665,-95 55.6665,-95 55.6665,-95 -77.6665,-95 -77.6665,-95 -83.6665,-95 -89.6665,-89 -89.6665,-83 -89.6665,-83 -89.6665,95 -89.6665,95 -89.6665,101 -83.6665,107 -77.6665,107"/>
<text text-anchor="middle" x="-11" y="-79.8" font-family="Times,serif" font-size="14.00">QuestionTypesController</text>
<polyline fill="none" stroke="black" points="-89.6665,-73 67.6665,-73 "/>
<text text-anchor="start" x="-81.6665" y="-57.8" font-family="Times,serif" font-size="14.00">create</text>
<text text-anchor="start" x="-81.6665" y="-43.8" font-family="Times,serif" font-size="14.00">destroy</text>
<text text-anchor="start" x="-81.6665" y="-29.8" font-family="Times,serif" font-size="14.00">edit</text>
<text text-anchor="start" x="-81.6665" y="-15.8" font-family="Times,serif" font-size="14.00">index</text>
<text text-anchor="start" x="-81.6665" y="-1.8" font-family="Times,serif" font-size="14.00">new</text>
<text text-anchor="start" x="-81.6665" y="12.2" font-family="Times,serif" font-size="14.00">show</text>
<text text-anchor="start" x="-81.6665" y="26.2" font-family="Times,serif" font-size="14.00">update</text>
<polyline fill="none" stroke="black" points="-89.6665,33 67.6665,33 "/>
<polyline fill="none" stroke="black" points="-89.6665,57 67.6665,57 "/>
<text text-anchor="start" x="-81.6665" y="72.2" font-family="Times,serif" font-size="14.00">_layout</text>
<text text-anchor="start" x="-81.6665" y="86.2" font-family="Times,serif" font-size="14.00">question_type_params</text>
<text text-anchor="start" x="-81.6665" y="100.2" font-family="Times,serif" font-size="14.00">set_question_type</text>
</g>
<!-- QuestionsController -->
<g id="node7" class="node"><title>QuestionsController</title>
<path fill="none" stroke="black" d="M120.228,107C120.228,107 225.772,107 225.772,107 231.772,107 237.772,101 237.772,95 237.772,95 237.772,-111 237.772,-111 237.772,-117 231.772,-123 225.772,-123 225.772,-123 120.228,-123 120.228,-123 114.228,-123 108.228,-117 108.228,-111 108.228,-111 108.228,95 108.228,95 108.228,101 114.228,107 120.228,107"/>
<text text-anchor="middle" x="173" y="-107.8" font-family="Times,serif" font-size="14.00">QuestionsController</text>
<polyline fill="none" stroke="black" points="108.228,-101 237.772,-101 "/>
<text text-anchor="start" x="116.228" y="-85.8" font-family="Times,serif" font-size="14.00">create</text>
<text text-anchor="start" x="116.228" y="-71.8" font-family="Times,serif" font-size="14.00">destroy</text>
<text text-anchor="start" x="116.228" y="-57.8" font-family="Times,serif" font-size="14.00">edit</text>
<text text-anchor="start" x="116.228" y="-43.8" font-family="Times,serif" font-size="14.00">index</text>
<text text-anchor="start" x="116.228" y="-29.8" font-family="Times,serif" font-size="14.00">new</text>
<text text-anchor="start" x="116.228" y="-15.8" font-family="Times,serif" font-size="14.00">show</text>
<text text-anchor="start" x="116.228" y="-1.8" font-family="Times,serif" font-size="14.00">update</text>
<polyline fill="none" stroke="black" points="108.228,5 237.772,5 "/>
<polyline fill="none" stroke="black" points="108.228,29 237.772,29 "/>
<text text-anchor="start" x="116.228" y="44.2" font-family="Times,serif" font-size="14.00">_layout</text>
<text text-anchor="start" x="116.228" y="58.2" font-family="Times,serif" font-size="14.00">authenticate_admin</text>
<text text-anchor="start" x="116.228" y="72.2" font-family="Times,serif" font-size="14.00">authenticate_user</text>
<text text-anchor="start" x="116.228" y="86.2" font-family="Times,serif" font-size="14.00">question_params</text>
<text text-anchor="start" x="116.228" y="100.2" font-family="Times,serif" font-size="14.00">set_question</text>
</g>
<!-- SessionsController -->
<g id="node8" class="node"><title>SessionsController</title>
<path fill="none" stroke="black" d="M-239.89,179C-239.89,179 -142.11,179 -142.11,179 -136.11,179 -130.11,173 -130.11,167 -130.11,167 -130.11,73 -130.11,73 -130.11,67 -136.11,61 -142.11,61 -142.11,61 -239.89,61 -239.89,61 -245.89,61 -251.89,67 -251.89,73 -251.89,73 -251.89,167 -251.89,167 -251.89,173 -245.89,179 -239.89,179"/>
<text text-anchor="middle" x="-191" y="76.2" font-family="Times,serif" font-size="14.00">SessionsController</text>
<polyline fill="none" stroke="black" points="-251.89,83 -130.11,83 "/>
<text text-anchor="start" x="-243.89" y="98.2" font-family="Times,serif" font-size="14.00">create</text>
<text text-anchor="start" x="-243.89" y="112.2" font-family="Times,serif" font-size="14.00">destroy</text>
<text text-anchor="start" x="-243.89" y="126.2" font-family="Times,serif" font-size="14.00">new</text>
<polyline fill="none" stroke="black" points="-251.89,133 -130.11,133 "/>
<polyline fill="none" stroke="black" points="-251.89,157 -130.11,157 "/>
<text text-anchor="start" x="-243.89" y="172.2" font-family="Times,serif" font-size="14.00">_layout</text>
</g>
<!-- UsersController -->
<g id="node9" class="node"><title>UsersController</title>
<path fill="none" stroke="black" d="M174.024,-163C174.024,-163 263.976,-163 263.976,-163 269.976,-163 275.976,-169 275.976,-175 275.976,-175 275.976,-381 275.976,-381 275.976,-387 269.976,-393 263.976,-393 263.976,-393 174.024,-393 174.024,-393 168.024,-393 162.024,-387 162.024,-381 162.024,-381 162.024,-175 162.024,-175 162.024,-169 168.024,-163 174.024,-163"/>
<text text-anchor="middle" x="219" y="-377.8" font-family="Times,serif" font-size="14.00">UsersController</text>
<polyline fill="none" stroke="black" points="162.024,-371 275.976,-371 "/>
<text text-anchor="start" x="170.024" y="-355.8" font-family="Times,serif" font-size="14.00">api</text>
<text text-anchor="start" x="170.024" y="-341.8" font-family="Times,serif" font-size="14.00">create</text>
<text text-anchor="start" x="170.024" y="-327.8" font-family="Times,serif" font-size="14.00">destroy</text>
<text text-anchor="start" x="170.024" y="-313.8" font-family="Times,serif" font-size="14.00">edit</text>
<text text-anchor="start" x="170.024" y="-299.8" font-family="Times,serif" font-size="14.00">index</text>
<text text-anchor="start" x="170.024" y="-285.8" font-family="Times,serif" font-size="14.00">new</text>
<text text-anchor="start" x="170.024" y="-271.8" font-family="Times,serif" font-size="14.00">show</text>
<text text-anchor="start" x="170.024" y="-257.8" font-family="Times,serif" font-size="14.00">update</text>
<polyline fill="none" stroke="black" points="162.024,-251 275.976,-251 "/>
<polyline fill="none" stroke="black" points="162.024,-227 275.976,-227 "/>
<text text-anchor="start" x="170.024" y="-211.8" font-family="Times,serif" font-size="14.00">_layout</text>
<text text-anchor="start" x="170.024" y="-197.8" font-family="Times,serif" font-size="14.00">authenticate_user</text>
<text text-anchor="start" x="170.024" y="-183.8" font-family="Times,serif" font-size="14.00">set_user</text>
<text text-anchor="start" x="170.024" y="-169.8" font-family="Times,serif" font-size="14.00">user_params</text>
</g>
</g>
</svg>
