<?xml version="1.0" encoding="UTF-8" standalone="no"?>
<!DOCTYPE svg PUBLIC "-//W3C//DTD SVG 1.1//EN"
 "http://www.w3.org/Graphics/SVG/1.1/DTD/svg11.dtd">
<!-- Generated by graphviz version 2.38.0 (20140413.2041)
 -->
<!-- Title: models_diagram Pages: 1 -->
<svg width="481pt" height="702pt"
 viewBox="0.00 0.00 480.78 702.00" xmlns="http://www.w3.org/2000/svg" xmlns:xlink="http://www.w3.org/1999/xlink">
<g id="graph0" class="graph" transform="scale(1 1) rotate(0) translate(4 698)">
<title>models_diagram</title>
<polygon fill="white" stroke="none" points="-4,4 -4,-698 476.777,-698 476.777,4 -4,4"/>
<!-- _diagram_info -->
<g id="node1" class="node"><title>_diagram_info</title>
<text text-anchor="start" x="13.2937" y="-665.6" font-family="Times,serif" font-size="13.00">Models diagram</text>
<text text-anchor="start" x="13.2937" y="-652.6" font-family="Times,serif" font-size="13.00">Date: Nov 19 2014 &#45; 15:04</text>
<text text-anchor="start" x="13.2937" y="-639.6" font-family="Times,serif" font-size="13.00">Migration version: 20141119070649</text>
<text text-anchor="start" x="13.2937" y="-626.6" font-family="Times,serif" font-size="13.00">Generated by RailRoady 1.2.0</text>
<text text-anchor="start" x="13.2937" y="-613.6" font-family="Times,serif" font-size="13.00">http://railroady.prestonlee.com</text>
</g>
<!-- Answer -->
<g id="node2" class="node"><title>Answer</title>
<path fill="none" stroke="black" d="M165,-0.5C165,-0.5 274.011,-0.5 274.011,-0.5 280.011,-0.5 286.011,-6.5 286.011,-12.5 286.011,-12.5 286.011,-130.5 286.011,-130.5 286.011,-136.5 280.011,-142.5 274.011,-142.5 274.011,-142.5 165,-142.5 165,-142.5 159,-142.5 153,-136.5 153,-130.5 153,-130.5 153,-12.5 153,-12.5 153,-6.5 159,-0.5 165,-0.5"/>
<text text-anchor="middle" x="219.505" y="-127.3" font-family="Times,serif" font-size="14.00">Answer</text>
<polyline fill="none" stroke="black" points="153,-120.5 286.011,-120.5 "/>
<text text-anchor="start" x="161" y="-105.3" font-family="Times,serif" font-size="14.00">id :integer</text>
<text text-anchor="start" x="161" y="-91.3" font-family="Times,serif" font-size="14.00">user_id :integer</text>
<text text-anchor="start" x="161" y="-77.3" font-family="Times,serif" font-size="14.00">question_id :integer</text>
<text text-anchor="start" x="161" y="-63.3" font-family="Times,serif" font-size="14.00">created_at :datetime</text>
<text text-anchor="start" x="161" y="-49.3" font-family="Times,serif" font-size="14.00">updated_at :datetime</text>
<text text-anchor="start" x="161" y="-35.3" font-family="Times,serif" font-size="14.00">answer_text :string</text>
<text text-anchor="start" x="161" y="-21.3" font-family="Times,serif" font-size="14.00">quantifier :string</text>
<text text-anchor="start" x="161" y="-7.3" font-family="Times,serif" font-size="14.00">location :string</text>
</g>
<!-- ApiKey -->
<g id="node3" class="node"><title>ApiKey</title>
<path fill="none" stroke="black" d="M316,-21.5C316,-21.5 425.011,-21.5 425.011,-21.5 431.011,-21.5 437.011,-27.5 437.011,-33.5 437.011,-33.5 437.011,-109.5 437.011,-109.5 437.011,-115.5 431.011,-121.5 425.011,-121.5 425.011,-121.5 316,-121.5 316,-121.5 310,-121.5 304,-115.5 304,-109.5 304,-109.5 304,-33.5 304,-33.5 304,-27.5 310,-21.5 316,-21.5"/>
<text text-anchor="middle" x="370.505" y="-106.3" font-family="Times,serif" font-size="14.00">ApiKey</text>
<polyline fill="none" stroke="black" points="304,-99.5 437.011,-99.5 "/>
<text text-anchor="start" x="312" y="-84.3" font-family="Times,serif" font-size="14.00">id :integer</text>
<text text-anchor="start" x="312" y="-70.3" font-family="Times,serif" font-size="14.00">created_at :datetime</text>
<text text-anchor="start" x="312" y="-56.3" font-family="Times,serif" font-size="14.00">updated_at :datetime</text>
<text text-anchor="start" x="312" y="-42.3" font-family="Times,serif" font-size="14.00">key :string</text>
<text text-anchor="start" x="312" y="-28.3" font-family="Times,serif" font-size="14.00">user_id :integer</text>
</g>
<!-- Game -->
<g id="node4" class="node"><title>Game</title>
<path fill="none" stroke="black" d="M242,-593.5C242,-593.5 351.011,-593.5 351.011,-593.5 357.011,-593.5 363.011,-599.5 363.011,-605.5 363.011,-605.5 363.011,-681.5 363.011,-681.5 363.011,-687.5 357.011,-693.5 351.011,-693.5 351.011,-693.5 242,-693.5 242,-693.5 236,-693.5 230,-687.5 230,-681.5 230,-681.5 230,-605.5 230,-605.5 230,-599.5 236,-593.5 242,-593.5"/>
<text text-anchor="middle" x="296.505" y="-678.3" font-family="Times,serif" font-size="14.00">Game</text>
<polyline fill="none" stroke="black" points="230,-671.5 363.011,-671.5 "/>
<text text-anchor="start" x="238" y="-656.3" font-family="Times,serif" font-size="14.00">id :integer</text>
<text text-anchor="start" x="238" y="-642.3" font-family="Times,serif" font-size="14.00">name :string</text>
<text text-anchor="start" x="238" y="-628.3" font-family="Times,serif" font-size="14.00">location :string</text>
<text text-anchor="start" x="238" y="-614.3" font-family="Times,serif" font-size="14.00">created_at :datetime</text>
<text text-anchor="start" x="238" y="-600.3" font-family="Times,serif" font-size="14.00">updated_at :datetime</text>
</g>
<!-- Quantifier -->
<g id="node5" class="node"><title>Quantifier</title>
<path fill="none" stroke="black" d="M12,-428.5C12,-428.5 121.011,-428.5 121.011,-428.5 127.011,-428.5 133.011,-434.5 133.011,-440.5 133.011,-440.5 133.011,-502.5 133.011,-502.5 133.011,-508.5 127.011,-514.5 121.011,-514.5 121.011,-514.5 12,-514.5 12,-514.5 6,-514.5 0,-508.5 0,-502.5 0,-502.5 0,-440.5 0,-440.5 0,-434.5 6,-428.5 12,-428.5"/>
<text text-anchor="middle" x="66.5054" y="-499.3" font-family="Times,serif" font-size="14.00">Quantifier</text>
<polyline fill="none" stroke="black" points="0,-492.5 133.011,-492.5 "/>
<text text-anchor="start" x="8" y="-477.3" font-family="Times,serif" font-size="14.00">id :integer</text>
<text text-anchor="start" x="8" y="-463.3" font-family="Times,serif" font-size="14.00">text :string</text>
<text text-anchor="start" x="8" y="-449.3" font-family="Times,serif" font-size="14.00">created_at :datetime</text>
<text text-anchor="start" x="8" y="-435.3" font-family="Times,serif" font-size="14.00">updated_at :datetime</text>
</g>
<!-- Game&#45;&gt;Quantifier -->
<g id="edge3" class="edge"><title>Game&#45;&gt;Quantifier</title>
<path fill="none" stroke="#6404d9" d="M222.503,-594.106C221.836,-593.734 221.17,-593.365 220.505,-593 186.689,-574.419 172.541,-579.926 141.505,-557 128.179,-547.155 115.481,-534.608 104.448,-522.213"/>
<ellipse fill="none" stroke="#6404d9" cx="226.229" cy="-596.232" rx="4.00002" ry="4.00002"/>
<polygon fill="#6404d9" stroke="#6404d9" points="104.35,-522.099 101.205,-511.594 101.077,-518.32 97.8032,-514.54 97.8032,-514.54 97.8032,-514.54 101.077,-518.32 94.4016,-517.486 104.35,-522.099 104.35,-522.099"/>
</g>
<!-- Question -->
<g id="node6" class="node"><title>Question</title>
<path fill="none" stroke="black" d="M162.655,-386.5C162.655,-386.5 276.355,-386.5 276.355,-386.5 282.355,-386.5 288.355,-392.5 288.355,-398.5 288.355,-398.5 288.355,-544.5 288.355,-544.5 288.355,-550.5 282.355,-556.5 276.355,-556.5 276.355,-556.5 162.655,-556.5 162.655,-556.5 156.655,-556.5 150.655,-550.5 150.655,-544.5 150.655,-544.5 150.655,-398.5 150.655,-398.5 150.655,-392.5 156.655,-386.5 162.655,-386.5"/>
<text text-anchor="middle" x="219.505" y="-541.3" font-family="Times,serif" font-size="14.00">Question</text>
<polyline fill="none" stroke="black" points="150.655,-534.5 288.355,-534.5 "/>
<text text-anchor="start" x="158.655" y="-519.3" font-family="Times,serif" font-size="14.00">id :integer</text>
<text text-anchor="start" x="158.655" y="-505.3" font-family="Times,serif" font-size="14.00">question_text :string</text>
<text text-anchor="start" x="158.655" y="-491.3" font-family="Times,serif" font-size="14.00">description :string</text>
<text text-anchor="start" x="158.655" y="-477.3" font-family="Times,serif" font-size="14.00">location :string</text>
<text text-anchor="start" x="158.655" y="-463.3" font-family="Times,serif" font-size="14.00">created_at :datetime</text>
<text text-anchor="start" x="158.655" y="-449.3" font-family="Times,serif" font-size="14.00">updated_at :datetime</text>
<text text-anchor="start" x="158.655" y="-435.3" font-family="Times,serif" font-size="14.00">picture :string</text>
<text text-anchor="start" x="158.655" y="-421.3" font-family="Times,serif" font-size="14.00">game_id :integer</text>
<text text-anchor="start" x="158.655" y="-407.3" font-family="Times,serif" font-size="14.00">question_type :string</text>
<text text-anchor="start" x="158.655" y="-393.3" font-family="Times,serif" font-size="14.00">is_quantifier :boolean</text>
</g>
<!-- Game&#45;&gt;Question -->
<g id="edge1" class="edge"><title>Game&#45;&gt;Question</title>
<path fill="none" stroke="#874dcf" d="M270.885,-585.936C267.968,-579.495 264.938,-572.807 261.876,-566.046"/>
<ellipse fill="none" stroke="#874dcf" cx="272.583" cy="-589.685" rx="4.00002" ry="4.00002"/>
<polygon fill="#874dcf" stroke="#874dcf" points="261.813,-565.907 261.786,-554.941 259.75,-561.352 257.687,-556.798 257.687,-556.798 257.687,-556.798 259.75,-561.352 253.588,-558.654 261.813,-565.907 261.813,-565.907"/>
</g>
<!-- QuestionType -->
<g id="node7" class="node"><title>QuestionType</title>
<path fill="none" stroke="black" d="M318,-428.5C318,-428.5 427.011,-428.5 427.011,-428.5 433.011,-428.5 439.011,-434.5 439.011,-440.5 439.011,-440.5 439.011,-502.5 439.011,-502.5 439.011,-508.5 433.011,-514.5 427.011,-514.5 427.011,-514.5 318,-514.5 318,-514.5 312,-514.5 306,-508.5 306,-502.5 306,-502.5 306,-440.5 306,-440.5 306,-434.5 312,-428.5 318,-428.5"/>
<text text-anchor="middle" x="372.505" y="-499.3" font-family="Times,serif" font-size="14.00">QuestionType</text>
<polyline fill="none" stroke="black" points="306,-492.5 439.011,-492.5 "/>
<text text-anchor="start" x="314" y="-477.3" font-family="Times,serif" font-size="14.00">id :integer</text>
<text text-anchor="start" x="314" y="-463.3" font-family="Times,serif" font-size="14.00">type_text :string</text>
<text text-anchor="start" x="314" y="-449.3" font-family="Times,serif" font-size="14.00">created_at :datetime</text>
<text text-anchor="start" x="314" y="-435.3" font-family="Times,serif" font-size="14.00">updated_at :datetime</text>
</g>
<!-- Game&#45;&gt;QuestionType -->
<g id="edge4" class="edge"><title>Game&#45;&gt;QuestionType</title>
<path fill="none" stroke="#f553a4" d="M321.81,-585.898C330.748,-565.905 340.745,-543.543 349.484,-523.996"/>
<ellipse fill="none" stroke="#f553a4" cx="320.12" cy="-589.677" rx="4.00002" ry="4.00002"/>
<polygon fill="#f553a4" stroke="#f553a4" points="349.581,-523.778 357.771,-516.485 351.622,-519.213 353.662,-514.649 353.662,-514.649 353.662,-514.649 351.622,-519.213 349.554,-512.812 349.581,-523.778 349.581,-523.778"/>
</g>
<!-- User -->
<g id="node8" class="node"><title>User</title>
<path fill="none" stroke="black" d="M278.328,-179.5C278.328,-179.5 424.683,-179.5 424.683,-179.5 430.683,-179.5 436.683,-185.5 436.683,-191.5 436.683,-191.5 436.683,-337.5 436.683,-337.5 436.683,-343.5 430.683,-349.5 424.683,-349.5 424.683,-349.5 278.328,-349.5 278.328,-349.5 272.328,-349.5 266.328,-343.5 266.328,-337.5 266.328,-337.5 266.328,-191.5 266.328,-191.5 266.328,-185.5 272.328,-179.5 278.328,-179.5"/>
<text text-anchor="middle" x="351.505" y="-334.3" font-family="Times,serif" font-size="14.00">User</text>
<polyline fill="none" stroke="black" points="266.328,-327.5 436.683,-327.5 "/>
<text text-anchor="start" x="274.328" y="-312.3" font-family="Times,serif" font-size="14.00">id :integer</text>
<text text-anchor="start" x="274.328" y="-298.3" font-family="Times,serif" font-size="14.00">email :string</text>
<text text-anchor="start" x="274.328" y="-284.3" font-family="Times,serif" font-size="14.00">name :string</text>
<text text-anchor="start" x="274.328" y="-270.3" font-family="Times,serif" font-size="14.00">game_id :integer</text>
<text text-anchor="start" x="274.328" y="-256.3" font-family="Times,serif" font-size="14.00">encrypted_password :string</text>
<text text-anchor="start" x="274.328" y="-242.3" font-family="Times,serif" font-size="14.00">salt :string</text>
<text text-anchor="start" x="274.328" y="-228.3" font-family="Times,serif" font-size="14.00">created_at :datetime</text>
<text text-anchor="start" x="274.328" y="-214.3" font-family="Times,serif" font-size="14.00">updated_at :datetime</text>
<text text-anchor="start" x="274.328" y="-200.3" font-family="Times,serif" font-size="14.00">isAdmin :boolean</text>
<text text-anchor="start" x="274.328" y="-186.3" font-family="Times,serif" font-size="14.00">roles_mask :integer</text>
</g>
<!-- Game&#45;&gt;User -->
<g id="edge2" class="edge"><title>Game&#45;&gt;User</title>
<path fill="none" stroke="#a86262" d="M370.792,-619.4C400.405,-606.134 431.455,-586.153 448.505,-557 486.874,-491.396 473.77,-457.678 448.505,-386 445.191,-376.597 440.798,-367.387 435.709,-358.511"/>
<ellipse fill="none" stroke="#a86262" cx="366.976" cy="-621.046" rx="4.00002" ry="4.00002"/>
<polygon fill="#a86262" stroke="#a86262" points="435.584,-358.305 434.25,-347.421 432.993,-354.029 430.401,-349.753 430.401,-349.753 430.401,-349.753 432.993,-354.029 426.553,-352.085 435.584,-358.305 435.584,-358.305"/>
</g>
<!-- Question&#45;&gt;Answer -->
<g id="edge5" class="edge"><title>Question&#45;&gt;Answer</title>
<path fill="none" stroke="#a5cb85" d="M219.505,-377.905C219.505,-309.686 219.505,-217.834 219.505,-152.729"/>
<ellipse fill="none" stroke="#a5cb85" cx="219.505" cy="-382.094" rx="4" ry="4"/>
<polygon fill="#a5cb85" stroke="#a5cb85" points="219.505,-152.517 224.005,-142.517 219.505,-147.517 219.505,-142.517 219.505,-142.517 219.505,-142.517 219.505,-147.517 215.005,-142.517 219.505,-152.517 219.505,-152.517"/>
</g>
<!-- Question&#45;&gt;User -->
<g id="edge6" class="edge"><title>Question&#45;&gt;User</title>
<path fill="none" stroke="#c9309e" d="M279.247,-377.719C283.369,-371.318 287.524,-364.865 291.646,-358.463"/>
<polygon fill="#c9309e" stroke="#c9309e" points="279.18,-377.823 269.983,-383.795 276.473,-382.027 273.766,-386.231 273.766,-386.231 273.766,-386.231 276.473,-382.027 277.55,-388.667 279.18,-377.823 279.18,-377.823"/>
<polygon fill="#c9309e" stroke="#c9309e" points="291.828,-358.181 301.025,-352.209 294.535,-353.977 297.242,-349.773 297.242,-349.773 297.242,-349.773 294.535,-353.977 293.458,-347.337 291.828,-358.181 291.828,-358.181"/>
</g>
<!-- User&#45;&gt;Answer -->
<g id="edge7" class="edge"><title>User&#45;&gt;Answer</title>
<path fill="none" stroke="#9bf1d5" d="M288.816,-172.791C283.773,-165.494 278.705,-158.159 273.728,-150.959"/>
<ellipse fill="none" stroke="#9bf1d5" cx="291.142" cy="-176.156" rx="4.00002" ry="4.00002"/>
<polygon fill="#9bf1d5" stroke="#9bf1d5" points="273.621,-150.804 271.638,-140.019 270.779,-146.691 267.936,-142.578 267.936,-142.578 267.936,-142.578 270.779,-146.691 264.234,-145.136 273.621,-150.804 273.621,-150.804"/>
</g>
<!-- User&#45;&gt;ApiKey -->
<g id="edge8" class="edge"><title>User&#45;&gt;ApiKey</title>
<path fill="none" stroke="#9faebf" d="M360.697,-171.099C362.101,-156.983 363.514,-142.777 364.814,-129.716"/>
<ellipse fill="none" stroke="#9faebf" cx="360.263" cy="-175.466" rx="4" ry="4"/>
<ellipse fill="#9faebf" stroke="#9faebf" cx="365.211" cy="-125.723" rx="4" ry="4"/>
</g>
</g>
</svg>
