<?xml version="1.0" encoding="UTF-8" standalone="no"?>
<!DOCTYPE svg PUBLIC "-//W3C//DTD SVG 1.1//EN"
 "http://www.w3.org/Graphics/SVG/1.1/DTD/svg11.dtd">
<!-- Generated by graphviz version 2.38.0 (20140413.2041)
 -->
<!-- Title: models_diagram Pages: 1 -->
<svg width="399pt" height="297pt"
 viewBox="0.00 0.00 398.56 297.00" xmlns="http://www.w3.org/2000/svg" xmlns:xlink="http://www.w3.org/1999/xlink">
<g id="graph0" class="graph" transform="scale(1 1) rotate(0) translate(4 293)">
<title>models_diagram</title>
<polygon fill="white" stroke="none" points="-4,4 -4,-293 394.555,-293 394.555,4 -4,4"/>
<!-- _diagram_info -->
<g id="node1" class="node"><title>_diagram_info</title>
<text text-anchor="start" x="8" y="-274.6" font-family="Times,serif" font-size="13.00">Models diagram</text>
<text text-anchor="start" x="8" y="-261.6" font-family="Times,serif" font-size="13.00">Date: Nov 19 2014 &#45; 15:04</text>
<text text-anchor="start" x="8" y="-248.6" font-family="Times,serif" font-size="13.00">Migration version: 20141119070649</text>
<text text-anchor="start" x="8" y="-235.6" font-family="Times,serif" font-size="13.00">Generated by RailRoady 1.2.0</text>
<text text-anchor="start" x="8" y="-222.6" font-family="Times,serif" font-size="13.00">http://railroady.prestonlee.com</text>
</g>
<!-- Answer -->
<g id="node2" class="node"><title>Answer</title>
<ellipse fill="none" stroke="black" cx="195.212" cy="-18" rx="37.7266" ry="18"/>
<text text-anchor="middle" x="195.212" y="-13.8" font-family="Times,serif" font-size="14.00">Answer</text>
</g>
<!-- ApiKey -->
<g id="node3" class="node"><title>ApiKey</title>
<ellipse fill="none" stroke="black" cx="289.212" cy="-18" rx="38.211" ry="18"/>
<text text-anchor="middle" x="289.212" y="-13.8" font-family="Times,serif" font-size="14.00">ApiKey</text>
</g>
<!-- Game -->
<g id="node4" class="node"><title>Game</title>
<ellipse fill="none" stroke="black" cx="255.212" cy="-252.5" rx="31.4462" ry="18"/>
<text text-anchor="middle" x="255.212" y="-248.3" font-family="Times,serif" font-size="14.00">Game</text>
</g>
<!-- Quantifier -->
<g id="node5" class="node"><title>Quantifier</title>
<ellipse fill="none" stroke="black" cx="89.2117" cy="-162" rx="45.9286" ry="18"/>
<text text-anchor="middle" x="89.2117" y="-157.8" font-family="Times,serif" font-size="14.00">Quantifier</text>
</g>
<!-- Game&#45;&gt;Quantifier -->
<g id="edge3" class="edge"><title>Game&#45;&gt;Quantifier</title>
<path fill="none" stroke="#b4b6f0" d="M234.491,-230.806C228.573,-225.556 221.905,-220.215 215.212,-216 189.595,-199.868 158.221,-186.652 133.189,-177.453"/>
<ellipse fill="none" stroke="#b4b6f0" cx="237.64" cy="-233.703" rx="4.00002" ry="4.00002"/>
<polygon fill="#b4b6f0" stroke="#b4b6f0" points="132.995,-177.384 125.104,-169.769 128.29,-175.694 123.584,-174.005 123.584,-174.005 123.584,-174.005 128.29,-175.694 122.063,-178.24 132.995,-177.384 132.995,-177.384"/>
</g>
<!-- Question -->
<g id="node6" class="node"><title>Question</title>
<ellipse fill="none" stroke="black" cx="195.212" cy="-162" rx="42.0784" ry="18"/>
<text text-anchor="middle" x="195.212" y="-157.8" font-family="Times,serif" font-size="14.00">Question</text>
</g>
<!-- Game&#45;&gt;Question -->
<g id="edge1" class="edge"><title>Game&#45;&gt;Question</title>
<path fill="none" stroke="#7bc4bf" d="M239.653,-228.551C231.174,-216.044 220.673,-200.556 212.008,-187.775"/>
<ellipse fill="none" stroke="#7bc4bf" cx="241.962" cy="-231.957" rx="4.00002" ry="4.00002"/>
<polygon fill="#7bc4bf" stroke="#7bc4bf" points="211.962,-187.706 210.075,-176.904 209.156,-183.568 206.35,-179.429 206.35,-179.429 206.35,-179.429 209.156,-183.568 202.625,-181.954 211.962,-187.706 211.962,-187.706"/>
</g>
<!-- QuestionType -->
<g id="node7" class="node"><title>QuestionType</title>
<ellipse fill="none" stroke="black" cx="315.212" cy="-162" rx="59.6846" ry="18"/>
<text text-anchor="middle" x="315.212" y="-157.8" font-family="Times,serif" font-size="14.00">QuestionType</text>
</g>
<!-- Game&#45;&gt;QuestionType -->
<g id="edge4" class="edge"><title>Game&#45;&gt;QuestionType</title>
<path fill="none" stroke="#e080da" d="M270.74,-228.596C279.161,-216.174 289.583,-200.802 298.221,-188.062"/>
<ellipse fill="none" stroke="#e080da" cx="268.461" cy="-231.957" rx="4.00002" ry="4.00002"/>
<polygon fill="#e080da" stroke="#e080da" points="298.257,-188.008 307.594,-182.256 301.063,-183.869 303.869,-179.731 303.869,-179.731 303.869,-179.731 301.063,-183.869 300.144,-177.205 298.257,-188.008 298.257,-188.008"/>
</g>
<!-- User -->
<g id="node8" class="node"><title>User</title>
<ellipse fill="none" stroke="black" cx="269.212" cy="-90" rx="27" ry="18"/>
<text text-anchor="middle" x="269.212" y="-85.8" font-family="Times,serif" font-size="14.00">User</text>
</g>
<!-- Game&#45;&gt;User -->
<g id="edge2" class="edge"><title>Game&#45;&gt;User</title>
<path fill="none" stroke="#084f8b" d="M291.494,-242.453C322.22,-232.663 364.348,-213.721 384.212,-180 392.333,-166.214 392.839,-157.475 384.212,-144 366.974,-117.076 332.212,-103.638 305.397,-97.053"/>
<ellipse fill="none" stroke="#084f8b" cx="287.382" cy="-243.701" rx="4.00001" ry="4.00001"/>
<polygon fill="#084f8b" stroke="#084f8b" points="305.32,-97.0359 296.545,-90.4595 300.441,-95.9433 295.562,-94.8507 295.562,-94.8507 295.562,-94.8507 300.441,-95.9433 294.578,-99.242 305.32,-97.0359 305.32,-97.0359"/>
</g>
<!-- Question&#45;&gt;Answer -->
<g id="edge5" class="edge"><title>Question&#45;&gt;Answer</title>
<path fill="none" stroke="#2d4d3f" d="M195.212,-135.558C195.212,-110.444 195.212,-72.164 195.212,-46.3932"/>
<ellipse fill="none" stroke="#2d4d3f" cx="195.212" cy="-139.871" rx="4" ry="4"/>
<polygon fill="#2d4d3f" stroke="#2d4d3f" points="195.212,-46.1893 199.712,-36.1892 195.212,-41.1893 195.212,-36.1893 195.212,-36.1893 195.212,-36.1893 195.212,-41.1893 190.712,-36.1893 195.212,-46.1893 195.212,-46.1893"/>
</g>
<!-- Question&#45;&gt;User -->
<g id="edge6" class="edge"><title>Question&#45;&gt;User</title>
<path fill="none" stroke="#a0b613" d="M219.518,-138.007C228.22,-129.776 237.986,-120.538 246.543,-112.443"/>
<polygon fill="#a0b613" stroke="#a0b613" points="219.268,-138.244 208.911,-141.847 215.636,-141.68 212.003,-145.116 212.003,-145.116 212.003,-145.116 215.636,-141.68 215.096,-148.385 219.268,-138.244 219.268,-138.244"/>
<polygon fill="#a0b613" stroke="#a0b613" points="246.732,-112.265 257.089,-108.662 250.364,-108.829 253.997,-105.393 253.997,-105.393 253.997,-105.393 250.364,-108.829 250.904,-102.124 246.732,-112.265 246.732,-112.265"/>
</g>
<!-- User&#45;&gt;Answer -->
<g id="edge7" class="edge"><title>User&#45;&gt;Answer</title>
<path fill="none" stroke="#c9e773" d="M248.397,-69.31C239.165,-60.5773 228.259,-50.2608 218.733,-41.2502"/>
<ellipse fill="none" stroke="#c9e773" cx="251.331" cy="-72.0856" rx="4.00002" ry="4.00002"/>
<polygon fill="#c9e773" stroke="#c9e773" points="218.713,-41.2311 214.541,-31.09 215.081,-37.7951 211.448,-34.3591 211.448,-34.3591 211.448,-34.3591 215.081,-37.7951 208.356,-37.6282 218.713,-41.2311 218.713,-41.2311"/>
</g>
<!-- User&#45;&gt;ApiKey -->
<g id="edge8" class="edge"><title>User&#45;&gt;ApiKey</title>
<path fill="none" stroke="#6e7672" d="M276.278,-64.2675C278.137,-57.7617 280.144,-50.7366 282.01,-44.2062"/>
<ellipse fill="none" stroke="#6e7672" cx="275.152" cy="-68.2089" rx="4.00001" ry="4.00001"/>
<ellipse fill="#6e7672" stroke="#6e7672" cx="283.177" cy="-40.1214" rx="4.00001" ry="4.00001"/>
</g>
</g>
</svg>
